PathFileType	4	(X/Y/Z)	 s01c0402.trc
DataRate	CameraRate	NumFrames	NumMarkers	Units	OrigDataRate	OrigDataStartFrame	OrigNumFrames
200	200	6	48	mm	200	251	2000
Frame#	Time	racr			lacr			c7			jug			rlel			rdr			llel			ldr			s2			lic			ric			lasi			rasi			rpsi			lpsi			rgt			lgt			rth1			rth2			rth3			rth4			rlfc			rsh1			rsh2			rsh3			rsh4			rlmal			rmmal			rcal			rtoe			rmt5			lth1			lth2			lth4			lth3			llfc			lsh1			lsh2			lsh3			lsh4			llmal			lmmal			lcal			ltoe			lmt5			SBIKE			LBIKE			RBIKE			
		X1	Y1	Z1	X2	Y2	Z2	X3	Y3	Z3	X4	Y4	Z4	X5	Y5	Z5	X6	Y6	Z6	X7	Y7	Z7	X8	Y8	Z8	X9	Y9	Z9	X10	Y10	Z10	X11	Y11	Z11	X12	Y12	Z12	X13	Y13	Z13	X14	Y14	Z14	X15	Y15	Z15	X16	Y16	Z16	X17	Y17	Z17	X18	Y18	Z18	X19	Y19	Z19	X20	Y20	Z20	X21	Y21	Z21	X22	Y22	Z22	X23	Y23	Z23	X24	Y24	Z24	X25	Y25	Z25	X26	Y26	Z26	X27	Y27	Z27	X28	Y28	Z28	X29	Y29	Z29	X30	Y30	Z30	X31	Y31	Z31	X32	Y32	Z32	X33	Y33	Z33	X34	Y34	Z34	X35	Y35	Z35	X36	Y36	Z36	X37	Y37	Z37	X38	Y38	Z38	X39	Y39	Z39	X40	Y40	Z40	X41	Y41	Z41	X42	Y42	Z42	X43	Y43	Z43	X44	Y44	Z44	X45	Y45	Z45	X46	Y46	Z46	X47	Y47	Z47	X48	Y48	Z48	
251	1.2550	461.955429	1356.424232	-101.340393	462.479244	1335.238313	-430.451409	420.433763	1413.066275	-261.003111	447.026521	1254.500388	-256.975765	533.829138	1092.570249	1.226025	707.967115	897.356158	-48.427671	512.351926	1067.609049	-535.525178	704.717564	905.990276	-452.785666	-73.529579	1141.083699	-237.325531	111.352941	1164.042883	-419.265714	93.771404	1131.683718	-91.322648	86.172474	1113.280527	-396.759656	115.357331	1082.463614	-117.717261	-40.982246	1174.607304	-183.393583	-52.658783	1184.335659	-288.184928	33.083410	1007.904184	-64.029772	32.189134	1045.783715	-451.410823	109.792057	894.825282	-51.689707	163.462634	831.255971	-56.323166	216.960599	759.285133	-71.378848	206.742225	865.372546	-68.463127	256.465351	662.549962	-96.045187	182.765166	570.034782	-62.350257	141.662890	496.101593	-66.109262	89.638018	424.026511	-78.615059	180.102570	474.061807	-107.407881	13.381526	321.514893	-97.676184	56.863905	326.373809	-177.834965	-38.800970	302.771578	-154.071972	216.257525	211.329542	-136.971198	107.181846	211.666645	-69.436741	149.587063	981.651522	-462.567978	223.741210	967.307116	-459.307748	231.522694	1020.287246	-451.699700	307.196227	949.192411	-447.036963	411.093563	885.313125	-426.137794	336.722177	800.789671	-447.202764	305.280482	720.539716	-439.037498	272.109765	642.578703	-422.324820	359.460339	702.297404	-415.031984	229.425314	522.168301	-403.281826	258.133658	534.606893	-321.240787	178.170331	480.261176	-363.144055	455.466377	482.781835	-371.844185	352.867047	452.579738	-437.265364	-225.112261	892.766127	-252.649632	-12.581294	85.118259	-455.835578	-21.689451	80.995172	-55.827470	
252	1.2600	462.899544	1356.016218	-101.873482	463.551312	1334.411163	-430.011146	420.980700	1412.700131	-261.266254	447.937082	1254.149975	-257.069422	532.656790	1092.031409	3.001969	707.502204	897.658026	-49.435531	510.845725	1066.291165	-537.134812	704.315742	906.743269	-453.166960	-73.575631	1141.425140	-237.213541	111.099703	1163.713672	-419.876617	93.624296	1131.920365	-91.152508	86.261942	1113.441778	-396.491160	115.097878	1082.573344	-117.352497	-40.976753	1175.010115	-183.278048	-51.992029	1184.974720	-288.011087	32.712454	1007.976668	-63.798837	32.254878	1045.999366	-451.208611	109.574313	895.101458	-51.366490	163.391421	831.519522	-56.032107	216.974661	759.613200	-71.083155	206.648086	865.703043	-68.274679	256.498324	663.136042	-96.072082	182.697215	570.724957	-62.408510	141.532879	496.854830	-66.186895	89.562351	424.751287	-78.719952	180.098232	474.750183	-107.419879	13.370917	322.047587	-97.777569	56.907726	326.655274	-177.901647	-38.647937	303.398118	-154.165138	216.178781	211.289667	-136.952543	107.090188	211.904348	-69.472324	150.520983	982.013376	-462.733402	223.804541	967.430778	-458.622266	231.611912	1020.393783	-450.655539	307.407947	949.303468	-446.197342	411.208996	885.610143	-425.539079	336.983839	800.839576	-446.845340	305.641158	720.585979	-438.835231	272.555876	642.531710	-422.179995	359.748599	702.365720	-414.749201	229.875571	522.107540	-403.411208	258.514304	534.574009	-321.316632	178.423863	480.379967	-363.274755	455.763366	482.373848	-371.904701	353.106001	452.306626	-437.403303	-225.131028	892.747463	-252.661052	-12.614305	84.978823	-455.900800	-21.706209	81.006198	-55.830191	
253	1.2650	463.899632	1355.662583	-102.342841	464.763720	1333.462028	-429.652570	421.544083	1412.175548	-261.440988	449.017062	1253.752490	-257.112082	531.267469	1091.365440	5.059607	706.869557	898.148356	-50.065897	509.453785	1065.239876	-538.773505	703.880260	907.555224	-453.544936	-73.601635	1141.837713	-237.094437	110.864908	1163.450028	-420.541532	93.473345	1132.156793	-90.961126	86.386150	1113.601691	-396.208893	114.827607	1082.663082	-116.979704	-40.837563	1175.390837	-183.282087	-51.293768	1185.642748	-287.831334	32.315058	1008.113568	-63.537446	32.290489	1046.269530	-451.024232	109.409893	895.336618	-51.094076	163.389097	831.922594	-55.506423	216.952143	760.065955	-70.663556	206.397101	865.966685	-68.270226	256.439801	663.790151	-96.099416	182.577346	571.570120	-62.496140	141.421679	497.658511	-66.301428	89.493870	425.544698	-78.833192	180.056097	475.542606	-107.446931	13.421818	322.684340	-97.879095	56.943364	326.985550	-177.960791	-38.493303	304.002145	-154.302723	216.090328	211.253461	-136.953557	106.998043	212.184283	-69.515105	151.476417	982.377297	-462.892275	223.877983	967.559359	-457.879472	231.810949	1020.664724	-449.726247	307.388557	949.477265	-445.336783	411.154517	885.816071	-424.829250	337.251071	800.934807	-446.382987	306.088300	720.622640	-438.616066	273.080521	642.488206	-422.030692	360.142668	702.499916	-414.342097	230.352673	522.057469	-403.555946	258.934791	534.570565	-321.386060	178.736190	480.492709	-363.379254	456.024202	482.032234	-371.960720	353.429835	452.057842	-437.514482	-225.131446	892.714032	-252.658398	-12.592756	85.095966	-455.839866	-21.694534	80.991397	-55.827154	
254	1.2700	464.931428	1355.319539	-102.747034	466.030152	1332.389630	-429.374703	422.217294	1411.460630	-261.675083	450.085771	1253.034499	-257.233497	529.689263	1090.504299	7.283885	706.459986	898.751353	-50.593122	508.018693	1064.140590	-540.404556	703.387182	908.445154	-453.872997	-73.590038	1142.346413	-236.908731	110.653112	1163.213669	-421.352914	93.282918	1132.431340	-90.741112	86.543630	1113.754507	-395.921877	114.504328	1082.714584	-116.543875	-40.711254	1175.892317	-183.225358	-50.563469	1186.340218	-287.645593	31.930622	1008.328929	-63.249781	32.309767	1046.593402	-450.847792	109.228055	895.679533	-50.750230	163.321090	832.389930	-55.094295	216.742241	760.592324	-70.297900	206.243550	866.453626	-67.921449	256.434331	664.416904	-96.190547	182.415853	572.436939	-62.599216	141.301108	498.525653	-66.444174	89.390397	426.402184	-78.931748	179.993312	476.422005	-107.475202	13.462634	323.317606	-97.896591	56.974950	327.359777	-178.015772	-38.327047	304.674250	-154.396844	216.029318	211.198127	-136.942136	106.888364	212.488552	-69.555305	152.452791	982.742564	-463.043471	223.964167	967.689630	-457.078961	233.002279	1020.980430	-448.079974	307.750468	949.574757	-444.244601	411.217279	886.082052	-423.883801	337.504113	801.068436	-445.939183	306.407487	720.664795	-438.230431	273.580546	642.464421	-421.872437	360.597616	702.565243	-413.404440	230.835668	522.020222	-403.718245	259.414196	534.602137	-321.466006	179.127208	480.609651	-363.548717	456.345927	481.681849	-372.004740	353.836911	451.726178	-437.581054	-225.131022	892.679126	-252.668895	-12.612764	84.984722	-455.911364	-21.722140	80.964413	-55.818471	
255	1.2750	466.063906	1354.875534	-103.163865	467.472231	1331.308670	-429.187553	423.056826	1410.616824	-262.079959	451.238259	1252.385028	-257.378415	527.898795	1089.310888	9.507500	706.125088	899.076108	-51.046925	504.920189	1063.071553	-543.277330	702.795987	909.318632	-454.098490	-73.496498	1142.936811	-236.831468	110.472166	1162.980602	-422.239965	93.064608	1132.741723	-90.452034	86.732916	1113.894470	-395.639132	114.261059	1082.779073	-116.103799	-40.446710	1176.367545	-183.278976	-49.800603	1187.067603	-287.453790	31.430627	1008.548384	-62.978525	32.326514	1046.970176	-450.669398	109.002154	896.125671	-50.418204	163.260293	832.879354	-54.600558	216.781066	761.129371	-69.885451	206.083245	867.027802	-67.549379	256.461554	665.128548	-96.271877	182.323690	573.392571	-62.773440	141.194456	499.515904	-66.561517	89.305388	427.281476	-79.047752	179.999103	477.148892	-107.439770	13.532005	323.964202	-97.917046	57.016212	327.770340	-178.062053	-38.157242	305.353961	-154.535564	215.966022	211.170246	-136.926513	106.768900	212.825177	-69.618892	153.449529	983.108454	-463.185861	224.066121	967.818270	-456.220789	233.097509	1021.386575	-447.366162	307.637449	949.723127	-443.337779	411.251653	886.443470	-422.896759	337.709708	801.228918	-445.477020	306.836179	720.735830	-437.823763	274.101166	642.459028	-421.727025	360.835020	702.712716	-412.925442	231.313720	521.995262	-403.891818	259.896463	534.620736	-321.547560	179.472133	480.771562	-363.717506	456.693775	481.303520	-372.020094	354.089641	451.509530	-437.697639	-225.148361	892.662814	-252.702198	-12.616490	84.992826	-455.904386	-21.713378	80.983375	-55.830607	
256	1.2800	467.298080	1354.312485	-103.546681	468.977401	1330.032771	-429.117247	424.046879	1409.649959	-262.372135	452.523405	1251.362349	-257.541523	525.903488	1087.911557	11.566038	705.803699	899.780268	-50.934068	505.763719	1062.513995	-543.923920	702.076060	910.167383	-454.189546	-73.396838	1143.661985	-236.676436	110.281024	1162.843378	-422.964962	92.878851	1133.061057	-90.127706	86.952540	1114.015824	-395.369678	114.082279	1082.818988	-115.680188	-40.013740	1176.812444	-183.428520	-49.004641	1187.825375	-287.255849	30.943362	1008.854687	-62.688089	32.354531	1047.399047	-450.479156	108.788035	896.657853	-50.033844	163.157560	833.421477	-54.158037	217.063706	761.721009	-69.475428	205.958516	867.666242	-67.197701	256.401806	665.935040	-96.348810	182.179153	574.297738	-62.961716	141.040083	500.362691	-66.729375	89.232191	428.151302	-79.148009	179.988085	478.072925	-107.444086	13.578790	324.615404	-97.967261	57.033803	328.235646	-178.103663	-37.994202	305.986967	-154.676100	215.902803	211.146133	-136.922750	106.688635	213.093691	-69.697549	154.466056	983.474246	-463.318318	224.187210	967.942009	-455.305481	233.035999	1021.828264	-446.481595	308.089319	949.883506	-441.911796	410.979763	886.795039	-421.793872	337.977047	801.356351	-444.852006	307.360699	720.874938	-437.488994	274.653783	642.459986	-421.553578	361.021963	702.879227	-412.309961	231.775990	521.978469	-404.064250	260.290285	534.614806	-321.617456	179.740573	480.883432	-363.839639	457.024028	480.867650	-372.148229	354.353048	451.231846	-437.829114	-225.161883	892.645511	-252.736384	-12.582479	85.090635	-455.861196	-21.724754	80.963044	-55.829886	
